<?xml version="1.0" encoding="utf-8"?>
<!-- Generator: Adobe Illustrator 22.1.0, SVG Export Plug-In . SVG Version: 6.00 Build 0)  -->
<svg version="1.1" id="Layer_1" xmlns="http://www.w3.org/2000/svg" xmlns:xlink="http://www.w3.org/1999/xlink" x="0px" y="0px"
	 viewBox="0 0 400 400" style="enable-background:new 0 0 400 400;" xml:space="preserve">
<style type="text/css">
	.st0{stroke:#000000;stroke-miterlimit:10;}
</style>
<g>
	<circle class="st0" cx="200" cy="200" r="199.5"/>
	<path class="st0" d="M200,1c26.9,0,52.9,5.3,77.5,15.6c23.7,10,45,24.4,63.3,42.6c18.3,18.3,32.6,39.6,42.6,63.3
		C393.8,147,399,173.1,399,200s-5.3,52.9-15.6,77.5c-10,23.7-24.4,45-42.6,63.3c-18.3,18.3-39.6,32.6-63.3,42.6
		C252.9,393.7,226.9,399,200,399s-52.9-5.3-77.5-15.6c-23.7-10-45-24.4-63.3-42.6c-18.3-18.3-32.6-39.6-42.6-63.3
		C6.3,252.9,1,226.9,1,200s5.3-52.9,15.6-77.5c10-23.7,24.4-45,42.6-63.3C77.6,41,98.8,26.7,122.5,16.6C147.1,6.3,173.1,1,200,1
		 M200,0C89.5,0,0,89.5,0,200s89.5,200,200,200s200-89.5,200-200S310.5,0,200,0L200,0z"/>
</g>
</svg>
